<svg width="123" height="40" fill="none" xmlns="http://www.w3.org/2000/svg">
    <path
        d="M52.424.505c1.84.067 3.682.785 4.92 2.18.322.322.562.696.763 1.05l.196.352.014.026.011.028c.286.717.576 1.55.524 2.443l-.025.437-.436.033c-1.283.095-2.602.196-3.928.151l-.387-.014-.084-.378c-.124-.557-.282-1.026-.6-1.357-.326-.318-.82-.486-1.336-.466-.52.02-.996.227-1.29.573l-.004.006c-.613.703-.843 1.671-.938 2.686v.016l-.004.018a7.31 7.31 0 00-.026 2.084l.043.299v.01l.003.01c.123 1.03.385 1.998 1.063 2.646.592.469 1.298.703 1.841.448l.025-.012.026-.008c.668-.23 1.049-.93 1.21-1.739l.079-.398.406-.004 1.016.004c1.015.017 2.027.07 3.031.133l.513.032-.046.512c-.126 1.379-.552 2.905-1.677 3.994h.001c-2 2.06-5.313 2.493-7.923 1.543l-.015-.006c-2.306-.929-3.828-3.06-4.346-5.3l-.001-.006c-.364-1.639-.474-3.359-.209-5.04.212-1.897 1.005-3.826 2.502-5.196l.26-.232C48.926.948 50.699.442 52.424.505zM17.463 1.307c.015 2.684.012 5.368.009 8.05-.004 2.682-.008 5.363.005 8.043l.003.502h-4.885v-5.159c0-.852 0-1.705.002-2.558-.028.058-.054.117-.081.175-.33.687-.657 1.359-.958 2.04l-.005.012-.006.012c-.198.392-.373.79-.565 1.21-.189.412-.39.837-.63 1.25l-.154.265-.305-.016c-.763-.04-1.481-.01-2.295-.021l-.327-.005-.127-.301a887.91 887.91 0 00-1.873-4.41v4.666c.002.778.008 1.555.023 2.33l.01.51H.5V.81l.512.012C1.735.84 2.46.835 3.195.83 3.561.828 3.93.826 4.298.828l1.11.015.29.008.137.255c.244.455.455.921.654 1.377l.297.68.3.663.005.006.003.008c.577 1.323 1.21 2.667 1.793 4.025.97-2.237 1.934-4.496 2.962-6.72l.127-.276.303-.014.592-.02c.591-.013 1.18-.009 1.763-.005.78.006 1.546.012 2.307-.02l.519-.022.003.519zM24.462.819c1.466.027 2.924.006 4.407.01h.364l.112.346.82 2.523c.823 2.515 1.66 5.022 2.483 7.552l.502 1.513c.488 1.503.942 2.981 1.49 4.467l.248.673h-5.145l-.106-.357c-.228-.758-.495-1.553-.702-2.36-1.584.012-3.09-.031-4.641.008-.21.763-.42 1.53-.646 2.293l-.051.175-.155.1-.076.05-.12.08-.147.003c-.678.008-1.36.009-2.041.008h-2.033l-.699.003.224-.664c1.811-5.36 3.621-10.722 5.43-16.084l.116-.346.366.007zm2.145 6.641a139.635 139.635 0 01-1.138 3.626c.738.001 1.508-.006 2.26.002-.382-1.22-.743-2.424-1.122-3.628zM45.001 1.305l.005 1.704c0 .567-.001 1.13.004 1.694l.005.504h-3.947v12.695h-4.84l.002-.503c.014-2.114.011-4.228.008-6.344-.002-1.948-.004-3.898.005-5.848h-4.082l.023-.521c.024-.545.016-1.092.01-1.658-.006-.561-.01-1.14.025-1.719l.028-.467.467-.004C36.667.807 40.559.87 44.494.81l.502-.008.005.503zM73.475 17.902h-4.883v-6.418h-3.928v5.918l.001.5h-5.022l.002-.502c.02-5.36.001-10.715.007-16.08V.81l.51.01c1.33.024 2.662.016 3.997.002l.506-.006v.506c-.002 1.912-.001 3.825 0 5.738h3.927V.81L69.1.82l1.934.017c.644.001 1.286-.006 1.927-.023l.514-.014v17.103zM80.46.819c1.184.034 2.364.01 3.568.004 1.198-.006 2.411.006 3.625.109h.016l.367.053c1.833.295 3.65 1.202 4.729 2.77l.231.357c1.097 1.805 1.302 3.944 1.235 5.892v.015c-.112 1.758-.501 3.673-1.716 5.191h-.001c-1.167 1.494-3.021 2.348-4.875 2.555h-.007c-.365.037-.889.131-1.35.136h-.004c-1.945.003-3.894 0-5.836.002h-.5V9.36c-.001-2.681 0-5.362.004-8.042l.001-.514.514.015zm4.434 4.986c-.028 2.585.007 5.153-.008 7.759.78-.01 1.491-.01 2.19-.173l.006-.002.146-.036a2.526 2.526 0 001.604-1.386c.447-1.117.375-2.33.36-3.668-.126-1.104-.324-2.097-1.106-2.612l-.005-.003c-.475-.32-1.032-.451-1.67-.504-.32-.026-.649-.032-.992-.037l-.516-.009-.01.67zM99.142.813c.72.024 1.444.024 2.176.021.365-.001.732-.004 1.101-.004l1.108.011.35.008.112.331c.656 1.924 1.295 3.893 1.938 5.836l.645 1.932.001.004.69 2.072c.232.69.466 1.38.701 2.07.469 1.38.94 2.764 1.395 4.152l.216.656h-5.147l-.115-.34a33.451 33.451 0 01-.71-2.377c-1.511-.005-3.048.008-4.569-.009-.23.792-.463 1.567-.674 2.356l-.098.37h-5.18l.222-.66c1.8-5.36 3.552-10.72 5.346-16.087L98.77.8l.373.013zm2.139 6.707c-.367 1.195-.733 2.38-1.085 3.575.735-.01 1.469-.007 2.198-.003-.384-1.188-.751-2.38-1.113-3.572zM106.361.792c.694.052 1.398.045 2.124.036.54-.007 1.092-.015 1.647.004l.555.028.291.02.126.264c.884 1.86 1.725 3.752 2.574 5.62.373-.773.733-1.555 1.091-2.343.501-1.106 1.003-2.226 1.539-3.33l.14-.289.322.008c1.406.033 2.812.039 4.214-.004l.85-.025-.39.754c-1.307 2.532-2.583 5.078-3.873 7.625l-.005.008c-.244.461-.476.93-.712 1.405-.217.436-.439.877-.671 1.315-.013 1.837-.002 3.67-.005 5.515l-.001.499h-4.878l-.003-.496c-.012-1.835.02-3.625-.018-5.436-1.76-3.527-3.61-6.91-5.4-10.453l-.399-.79.882.065zM28.682 21.663c1.571-.974 3.504-1.168 5.243-1l.32.037c1.504.197 3.081.772 4.152 1.944l.221.26.004.006.136.183c.658.932 1.035 2.075.973 3.227l-.024.47-.472.002c-1.37.007-2.706-.008-4.062.011l-.427.006-.072-.421c-.092-.532-.272-.935-.606-1.12-.612-.323-1.418-.315-2.185-.121-.143.115-.275.24-.394.374l-.029.122a2.8 2.8 0 00-.048.198.604.604 0 00-.014.126l.012.064.012.03.008.032.038.105c.049.102.133.2.259.296.128.097.287.18.46.254l.178.07.002.002.318.112c.742.254 1.501.446 2.305.688.898.271 1.817.598 2.658 1.126h0c1.022.614 1.803 1.6 2.116 2.739l.056.23.002.01.002.01c.24 1.404.16 3.05-.8 4.347l.001.001c-1.073 1.502-2.906 2.271-4.651 2.477l-.017.002h-.016c-1.946.099-4.262.14-6.097-1.094h0c-1.73-1.04-2.354-3.09-2.202-4.847l.04-.456h.456c1.3-.005 2.577.01 3.864-.01l.53-.01-.022.53c-.022.544.213 1.057.648 1.293.825.407 1.849.438 2.73.111l.007-.002.007-.002c.246-.084.432-.295.513-.57.08-.278.037-.566-.109-.765l-.007-.01-.006-.008c-.096-.145-.253-.256-.5-.358a5.197 5.197 0 00-.407-.144c-.133-.043-.286-.091-.431-.143-1.88-.534-4.146-1.039-5.72-2.577v0c-1.135-1.034-1.534-2.59-1.358-3.987.088-1.48.938-2.844 2.156-3.688l.249-.162zM84.61 21.255c1.573-.672 3.347-.785 4.996-.516v-.001c1.5.215 3.014.877 4.032 2.058h-.001c.867.99 1.236 2.27 1.249 3.496l.006.511-.511-.005c-1.374-.014-2.672.005-4.06-.006l-.373-.003-.104-.357c-.074-.253-.111-.43-.184-.618a.887.887 0 00-.238-.371l-.013-.011-.012-.012c-.232-.226-.549-.344-.946-.386-.398-.04-.834-.001-1.265.056-.313.056-.541.308-.61.633-.07.326.039.625.296.78.51.289 1.078.481 1.693.66.602.173 1.279.342 1.91.573h0c1.435.468 3.118 1.201 3.959 2.715h0c.675 1.131.664 2.456.51 3.583l-.002.01v.01c-.35 1.966-1.962 3.534-3.845 4.13l-.001-.001c-1.455.503-3.007.442-4.403.385l-.022-.001-.023-.003a10.532 10.532 0 01-2.458-.617l-.018-.008-.019-.009c-1.065-.518-2.05-1.363-2.532-2.505v.001c-.397-.89-.528-1.856-.483-2.786l.022-.475.475-.002c1.3-.005 2.57.013 3.853-.012l.45-.009.056.446c.08.631.214 1.09.582 1.326.852.483 1.974.504 2.915.12l.09-.046a.816.816 0 00.366-.604c.04-.3-.058-.587-.256-.758l-.168-.12a2.868 2.868 0 00-.612-.283c-.32-.11-.625-.183-.992-.289v0c-1.632-.432-3.45-.948-4.849-2.137v0c-1.092-.914-1.72-2.313-1.635-3.715-.072-1.94 1.12-3.781 2.85-4.678l.013-.006.312-.143zM40.693 20.93c4.205.03 8.411.035 12.615.002l.496-.004.008.495.007.891v.885c0 .59-.002 1.174.007 1.757l.009.507h-4.364c.031 1.982.025 3.964.018 5.94-.007 2.147-.013 4.287.034 6.424l.011.503-.503.008c-1.37.022-2.741.01-4.103 0l-.505-.004.009-.504c.072-4.143-.008-8.209.029-12.367h-4.3l.015-.515c.037-1.187-.004-2.3.014-3.526l.006-.497.497.004zM58.062 20.91c1.624.076 3.25.036 4.907.021l.366-.003.113.35 1.345 4.097c1.355 4.105 2.732 8.228 4.063 12.324l.217.669-.704-.015c-.713-.014-1.427-.01-2.15-.007-.72.004-1.45.006-2.179-.013l-.382-.01-.09-.37c-.11-.447-.247-.89-.39-1.345a55.46 55.46 0 01-.31-1.02h-4.76c-.243.769-.458 1.536-.7 2.334l-.047.154-.129.099-.087.066-.133.102h-.167c-1.079.007-2.13-.002-3.19 0l-1.063.007-.7.01.22-.666c1.804-5.463 3.648-10.983 5.451-16.442l.119-.36.38.018zm2.397 6.704c-.4 1.23-.79 2.46-1.17 3.694h2.332c-.37-1.21-.79-2.45-1.162-3.694zM80.861 21.413l.014.895v1.768c.002.291.005.581.015.87l.016.516H76.45c.012 4.138-.007 8.25.015 12.384l.003.508-.508-.006c-1.003-.01-2.064 0-3.103-.004l-1.03-.008-.499-.007.007-.5c.026-2.14.022-4.283.018-6.429-.005-1.977-.008-3.957.01-5.938h-4.487l.012-.511c.014-.581.01-1.163.007-1.754a61.45 61.45 0 01.01-1.783l.011-.497.497.008 1.107.016c2.578.027 5.15-.007 7.75.007h-.001c1.393-.012 2.717.03 4.075-.02l.504-.02.014.505z"
        fill="#0D2128" stroke="#F3EBEB" />
</svg>