<svg width="123" height="40" viewBox="0 0 123 40" fill="none" xmlns="http://www.w3.org/2000/svg">
<path d="M52.4238 0.504883C54.2635 0.572369 56.1064 1.29015 57.3447 2.68457C57.6665 3.00706 57.906 3.38058 58.1074 3.73438L58.3027 4.08691L58.3174 4.11328L58.3281 4.14062C58.6139 4.85754 58.9042 5.69183 58.8525 6.58398L58.8271 7.02148L58.3906 7.05371C57.1076 7.14886 55.7894 7.25037 54.4629 7.20508L54.0762 7.19141L53.9922 6.81348C53.8681 6.25559 53.7099 5.78665 53.3916 5.45605C53.0664 5.13803 52.5722 4.97021 52.0557 4.99023C51.5368 5.0104 51.0597 5.21733 50.7666 5.56348L50.7617 5.56934C50.1488 6.27161 49.9187 7.2402 49.8242 8.25488L49.8232 8.27148L49.8203 8.28906C49.7087 8.97281 49.7066 9.67492 49.7939 10.373L49.8369 10.6719L49.8379 10.6816L49.8398 10.6924C49.9632 11.7224 50.2246 12.6905 50.9033 13.3379C51.4946 13.8067 52.201 14.0407 52.7441 13.7861L52.7686 13.7744L52.7949 13.7656C53.4627 13.5363 53.8439 12.8351 54.0049 12.0273L54.084 11.6289L54.4902 11.625L55.5059 11.6289C56.5211 11.6457 57.5328 11.6984 58.5371 11.7617L59.0498 11.7939L59.0039 12.3057C58.8784 13.6845 58.4519 15.2109 57.3271 16.2998L57.3281 16.3008C55.3287 18.3598 52.0147 18.7928 49.4053 17.8428L49.3896 17.8369C47.0842 16.9082 45.5622 14.7764 45.0439 12.5361L45.043 12.5312C44.6795 10.8925 44.5687 9.17242 44.834 7.49121C45.0464 5.59443 45.8385 3.66466 47.3359 2.29492L47.5957 2.06348C48.9252 0.947539 50.6992 0.441664 52.4238 0.504883Z" fill="#0D2128" stroke="#F3EBEB"/>
<path d="M17.4629 1.30701C17.4778 3.99111 17.475 6.67506 17.4717 9.35681C17.4683 12.0392 17.4641 14.7201 17.4775 17.3998L17.4805 17.9017H12.5947L12.5957 17.4017L12.5947 12.7435C12.5944 11.8907 12.5958 11.0378 12.5967 10.1849C12.569 10.243 12.5433 10.3019 12.5156 10.3597C12.1866 11.0474 11.859 11.7186 11.5576 12.4008L11.5527 12.4125L11.5469 12.4242C11.3494 12.816 11.1742 13.2143 10.9824 13.6332C10.7934 14.0459 10.5911 14.4709 10.3516 14.8842L10.1982 15.1488L9.89258 15.1332C9.12957 15.0922 8.41202 15.1237 7.59766 15.1117L7.27051 15.1068L7.14355 14.806C6.52272 13.3333 5.89858 11.8636 5.27051 10.3959V15.0619C5.27311 15.8396 5.27944 16.6166 5.29395 17.3929L5.30371 17.9017H0.5V0.810913L1.01172 0.822632C1.73547 0.839545 2.46099 0.834735 3.19531 0.830444C3.56098 0.828308 3.92883 0.826436 4.29785 0.827515L5.4082 0.84314L5.69824 0.850952L5.83496 1.10583C6.07937 1.56086 6.28988 2.02718 6.48926 2.48279C6.5901 2.71323 6.68798 2.93925 6.78613 3.16248L7.08691 3.82556L7.09082 3.8324L7.09375 3.84021C7.67142 5.16317 8.30456 6.50717 8.88672 7.86462C9.857 5.62776 10.8211 3.369 11.8486 1.1449L11.9756 0.86853L12.2793 0.854858L12.8711 0.835327C13.462 0.822137 14.0519 0.826044 14.6338 0.830444C15.4141 0.836346 16.1804 0.842112 16.9414 0.809937L17.46 0.788452L17.4629 1.30701Z" fill="#0D2128" stroke="#F3EBEB"/>
<path d="M24.4619 0.818604C25.9277 0.845611 27.386 0.825498 28.8691 0.828369L29.2334 0.829346L29.3447 1.17505L30.1641 3.69751C30.9882 6.21326 31.8256 8.72037 32.6475 11.2502L33.1504 12.7629C33.638 14.2662 34.092 15.744 34.6396 17.2297L34.8877 17.9026H29.7432L29.6367 17.5461C29.4087 16.7885 29.1419 15.993 28.9346 15.1858C27.3509 15.1985 25.8459 15.155 24.2939 15.1936C24.0849 15.957 23.8731 16.7238 23.6484 17.4866L23.5967 17.6624L23.4424 17.7629L23.3662 17.8127L23.2451 17.8928L23.0986 17.8948C22.4208 17.9033 21.7384 17.9036 21.0576 17.9026H19.0254L18.3262 17.9055L18.5498 17.2424C20.3611 11.8823 22.1712 6.52004 23.9795 1.15845L24.0957 0.811768L24.4619 0.818604ZM26.6074 7.46021C26.2405 8.66741 25.8708 9.88232 25.4688 11.0862C26.207 11.0873 26.977 11.0798 27.7295 11.0881C27.3473 9.86833 26.9864 8.66411 26.6074 7.46021Z" fill="#0D2128" stroke="#F3EBEB"/>
<path d="M45.001 1.30505L45.0059 3.00916C45.0055 3.57567 45.0046 4.1393 45.0098 4.70251L45.0146 5.2074H41.0684V17.9017H36.2275L36.2305 17.3988C36.2439 15.2851 36.2413 13.171 36.2383 11.0551C36.2355 9.10703 36.2343 7.15721 36.2432 5.2074H32.1611L32.1836 4.68591C32.2075 4.1413 32.2004 3.59385 32.1943 3.02771C32.1884 2.46689 32.184 1.88852 32.2188 1.30896L32.2471 0.842163L32.7139 0.838257C36.6665 0.806674 40.559 0.869942 44.4932 0.809937L44.9961 0.802124L45.001 1.30505Z" fill="#0D2128" stroke="#F3EBEB"/>
<path d="M73.4746 17.9017H68.5918V11.4837H64.6641C64.6639 13.4568 64.6627 15.4291 64.6641 17.4017L64.665 17.9017H59.6426L59.6445 17.3997C59.6654 12.04 59.6464 6.68491 59.6523 1.31964V0.810852L60.1611 0.819641C61.4915 0.84375 62.8236 0.835849 64.1592 0.821594L64.665 0.815735L64.6641 1.32159C64.6627 3.23427 64.6639 5.1467 64.6641 7.05988H68.5918V0.810852L69.0996 0.818665L71.0342 0.836243C71.6777 0.836952 72.3201 0.830477 72.9609 0.812805L73.4746 0.799133V17.9017Z" fill="#0D2128" stroke="#F3EBEB"/>
<path d="M80.4609 0.818604C81.6435 0.852512 82.8241 0.829597 84.0283 0.823486C85.2261 0.817411 86.4391 0.82864 87.6533 0.931885H87.6611L87.6689 0.932861L88.0361 0.984619C89.8688 1.28013 91.6861 2.18685 92.7646 3.75513L92.9961 4.11157C94.0934 5.91695 94.2984 8.05586 94.2314 10.0042V10.0188C94.1185 11.7772 93.7296 13.6922 92.5146 15.2102L92.5137 15.2092C91.3473 16.7038 89.4928 17.5581 87.6387 17.7649L87.6318 17.7659C87.2667 17.8017 86.7435 17.8961 86.2822 17.9006H86.2783C84.3332 17.9035 82.3843 17.9012 80.4424 17.9026H79.9414L79.9424 17.4016L79.9414 9.35962C79.9408 6.67871 79.9411 3.99773 79.9463 1.31763L79.9473 0.803955L80.4609 0.818604ZM84.8936 5.80493C84.8664 8.39027 84.9008 10.9579 84.8857 13.5637C85.6656 13.5534 86.377 13.5543 87.0762 13.3909L87.082 13.3889L87.2275 13.3528C87.9458 13.1473 88.5487 12.6185 88.832 11.967C89.2792 10.8505 89.2069 9.6376 89.1924 8.29907C89.0659 7.19496 88.8684 6.20233 88.0859 5.68677L88.0811 5.68384C87.6064 5.36315 87.0486 5.2327 86.4102 5.17993C86.0907 5.15354 85.762 5.14751 85.4189 5.14282C85.2504 5.14052 85.0775 5.13817 84.9033 5.13403L84.8936 5.80493Z" fill="#0D2128" stroke="#F3EBEB"/>
<path d="M99.1416 0.812805C99.8627 0.837405 100.586 0.83732 101.318 0.83429C101.683 0.83278 102.05 0.830133 102.419 0.830383L103.527 0.841125L103.877 0.848938L103.989 1.17999C104.645 3.10386 105.284 5.07314 105.927 7.01593L106.572 8.94757L106.573 8.95245L107.263 11.0237C107.495 11.7137 107.729 12.4036 107.964 13.0941C108.433 14.4743 108.904 15.8577 109.359 17.2464L109.575 17.9017H104.787L104.428 17.9026L104.313 17.5618C104.051 16.7818 103.808 15.9884 103.603 15.1849C102.092 15.1804 100.555 15.1932 99.0342 15.1761C98.8036 15.9677 98.5715 16.7434 98.3604 17.5316L98.2617 17.9017H93.082L93.3037 17.2425C95.1042 11.8819 96.8559 6.52275 98.6504 1.1546L98.7686 0.80011L99.1416 0.812805ZM101.281 7.51984C100.914 8.71471 100.548 9.89923 100.196 11.095C100.931 11.0848 101.665 11.0881 102.394 11.0921C102.01 9.90405 101.643 8.71131 101.281 7.51984Z" fill="#0D2128" stroke="#F3EBEB"/>
<path d="M106.361 0.79248C107.055 0.844094 107.759 0.836948 108.485 0.827637C109.025 0.820727 109.577 0.812875 110.132 0.831543L110.687 0.859863L110.978 0.880371L111.104 1.14404C111.988 3.00435 112.829 4.89562 113.678 6.76416C114.051 5.99112 114.411 5.20916 114.769 4.42139C115.27 3.31518 115.772 2.19539 116.308 1.09131L116.448 0.802246L116.77 0.810059C118.176 0.842709 119.582 0.848588 120.984 0.806152L121.834 0.780762L121.444 1.53467C120.137 4.06695 118.861 6.61279 117.571 9.15967L117.566 9.16846C117.322 9.62917 117.09 10.0974 116.854 10.5728C116.637 11.0089 116.415 11.4503 116.183 11.8882C116.17 13.7249 116.181 15.558 116.178 17.4028L116.177 17.9019H111.299L111.296 17.4058C111.284 15.5709 111.316 13.7807 111.278 11.9702C109.518 8.44292 107.668 5.05944 105.878 1.51709L105.479 0.727051L106.361 0.79248Z" fill="#0D2128" stroke="#F3EBEB"/>
<path d="M28.6816 21.6634C30.253 20.6885 32.1863 20.4951 33.9248 20.6634L34.2451 20.6995C35.7491 20.8967 37.3262 21.4722 38.3965 22.6439L38.6182 22.9046L38.6221 22.9095L38.7578 23.0931C39.4164 24.025 39.7927 25.1679 39.7314 26.3196L39.707 26.7903L39.2354 26.7923C37.8651 26.7995 36.5291 26.7845 35.1729 26.803L34.7461 26.8089L34.6738 26.388C34.5822 25.8563 34.4021 25.4529 34.0684 25.2679C33.4559 24.9448 32.65 24.9535 31.8828 25.1468C31.7395 25.2624 31.6076 25.3873 31.4893 25.5208C31.4781 25.5647 31.4697 25.6066 31.46 25.6429C31.4386 25.7221 31.4232 25.7836 31.4121 25.8411C31.4013 25.8974 31.3976 25.9375 31.3984 25.9671L31.4102 26.0306L31.4219 26.0609L31.4297 26.0931L31.4678 26.1976C31.5168 26.2999 31.6007 26.3979 31.7266 26.4935C31.8552 26.5911 32.0137 26.6747 32.1875 26.7484L32.3652 26.8187L32.3672 26.8196L32.6846 26.9319C33.4266 27.1856 34.186 27.3776 34.9902 27.6204C35.8881 27.8915 36.8067 28.2181 37.6484 28.7464H37.6475C38.6696 29.3604 39.4515 30.3459 39.7637 31.4847L39.8203 31.7151L39.8223 31.7249L39.8242 31.7357C40.0648 33.1387 39.9846 34.7853 39.0244 36.0823L39.0254 36.0833C37.9518 37.5848 36.1186 38.3543 34.374 38.5599L34.3574 38.5618H34.3408C32.3947 38.6608 30.0787 38.7026 28.2441 37.4681H28.2432C26.5143 36.4274 25.8904 34.3772 26.042 32.6214L26.0811 32.1653L26.5381 32.1644C27.8387 32.1601 29.1154 32.1745 30.4023 32.1546L30.9316 32.1458L30.9102 32.6751C30.8877 33.2191 31.1235 33.7324 31.5576 33.9681C32.3829 34.3755 33.4065 34.4057 34.2881 34.0794L34.2949 34.0775L34.3018 34.0745C34.5482 33.9911 34.734 33.7799 34.8145 33.5052C34.8958 33.2269 34.8521 32.939 34.7061 32.7396L34.6992 32.7308L34.6934 32.722C34.5967 32.577 34.4395 32.4664 34.1924 32.3636C34.0692 32.3124 33.9351 32.2677 33.7861 32.22C33.6526 32.1773 33.5002 32.129 33.3545 32.0765C31.4743 31.5427 29.2094 31.038 27.6348 29.5003V29.4993C26.4996 28.4657 26.101 26.9105 26.2773 25.513C26.3648 24.033 27.2152 22.6689 28.4326 21.8255L28.6816 21.6634Z" fill="#0D2128" stroke="#F3EBEB"/>
<path d="M84.6104 21.2552C86.1825 20.5833 87.9566 20.4696 89.6055 20.7386L89.6064 20.7377C91.1054 20.9526 92.6196 21.6153 93.6377 22.7963H93.6367C94.5044 23.7854 94.8728 25.0664 94.8857 26.2924L94.8916 26.8031L94.3809 26.7982C93.0075 26.7838 91.7088 26.8026 90.3203 26.7924L89.9482 26.7894L89.8438 26.432C89.7702 26.1787 89.7326 26.0012 89.6602 25.8138C89.5944 25.644 89.5202 25.5268 89.4219 25.4427L89.4092 25.432L89.3975 25.4203C89.1655 25.1939 88.848 25.0759 88.4512 25.0345C88.0525 24.9931 87.6167 25.033 87.1855 25.0902C86.8726 25.1456 86.6447 25.3975 86.5752 25.723C86.5056 26.0495 86.6148 26.348 86.8721 26.5023C87.3821 26.7919 87.9495 26.9843 88.5654 27.1625C89.1667 27.3364 89.844 27.5046 90.4756 27.7357H90.4746C91.9098 28.2041 93.5931 28.9373 94.4336 30.4506H94.4346C95.1086 31.5823 95.0981 32.9069 94.9443 34.0336L94.9424 34.0433L94.9414 34.0531C94.5926 36.0199 92.9802 37.5877 91.0967 38.184L91.0957 38.183C89.641 38.6862 88.089 38.6254 86.6934 38.5677L86.6709 38.5668L86.6484 38.5638C85.8106 38.4538 84.9822 38.2555 84.1904 37.9467L84.1719 37.9388L84.1533 37.9301C83.088 37.412 82.1024 36.5666 81.6211 35.4252L81.6201 35.4261C81.224 34.5354 81.093 33.5703 81.1377 32.64L81.1602 32.1654L81.6348 32.1635C82.9357 32.1577 84.2051 32.1764 85.4883 32.1508L85.9375 32.142L85.9941 32.5883C86.0741 33.2192 86.2083 33.6781 86.5762 33.9144C87.428 34.3974 88.5497 34.4178 89.4912 34.0336L89.5811 33.9877C89.7799 33.8665 89.9124 33.6474 89.9473 33.3842C89.987 33.0834 89.8887 32.7972 89.6914 32.6263L89.5234 32.5052C89.3462 32.3922 89.1423 32.3026 88.9111 32.223C88.5911 32.1128 88.2857 32.0403 87.9189 31.934V31.9349C86.2869 31.5017 84.4692 30.9861 83.0703 29.7972V29.7963C81.9781 28.8831 81.35 27.4843 81.4346 26.0824C81.3634 24.1422 82.5548 22.3007 84.2852 21.4037L84.2979 21.3978L84.6104 21.2552Z" fill="#0D2128" stroke="#F3EBEB"/>
<path d="M40.6934 20.9293C44.8975 20.9606 49.1042 20.965 53.3076 20.9322L53.8037 20.9283L53.8115 21.4234L53.8193 22.314C53.8201 22.6099 53.8199 22.905 53.8193 23.1988C53.8182 23.7883 53.8166 24.3726 53.8262 24.9556L53.835 25.4634H49.4707C49.5023 27.445 49.496 29.4271 49.4893 31.4029C49.482 33.5497 49.4756 35.6897 49.5225 37.8267L49.5342 38.3297L49.0312 38.3384C47.661 38.3599 46.2896 38.3484 44.9277 38.3384L44.4229 38.3345L44.4316 37.8297C44.5037 33.6867 44.4245 29.6211 44.4609 25.4634H40.1602L40.1758 24.9478C40.2134 23.7611 40.1724 22.6471 40.1895 21.4224L40.1963 20.9254L40.6934 20.9293Z" fill="#0D2128" stroke="#F3EBEB"/>
<path d="M58.0615 20.9099C59.6859 20.9861 61.3124 20.9458 62.9688 20.9314L63.335 20.9285L63.4482 21.2771L64.793 25.3748C66.1478 29.4805 67.5252 33.6033 68.8555 37.699L69.0732 38.3679L68.3691 38.3533C67.6557 38.3385 66.9415 38.343 66.2188 38.3464C65.4983 38.3498 64.7698 38.3515 64.04 38.3328L63.6582 38.323L63.5674 37.9529C63.4572 37.5065 63.3212 37.0633 63.1787 36.6082C63.0745 36.2755 62.9691 35.9339 62.8682 35.5886C61.2818 35.5877 59.6955 35.5885 58.1074 35.5886C57.8646 36.3568 57.6501 37.1245 57.4082 37.9216L57.3613 38.0759L57.2324 38.1746L57.1445 38.241L57.0117 38.3425L56.8447 38.3435C55.766 38.35 54.7143 38.3411 53.6553 38.3435L52.5918 38.3503L51.8916 38.3591L52.1113 37.6941C53.916 32.2313 55.7595 26.711 57.5635 21.2517L57.6816 20.8914L58.0615 20.9099ZM60.459 27.614C60.0597 28.8434 59.6689 30.0745 59.2881 31.3083H61.6211C61.2504 30.0989 60.8313 28.858 60.459 27.614Z" fill="#0D2128" stroke="#F3EBEB"/>
<path d="M80.8613 21.4127L80.875 22.3082V24.0758C80.8767 24.3672 80.8805 24.6572 80.8896 24.9469L80.9062 25.4625H76.4492C76.4609 29.5996 76.4423 33.7118 76.4639 37.8463L76.4668 38.3541L75.959 38.3483C74.9564 38.3379 73.8951 38.3475 72.8555 38.3444L71.8262 38.3356L71.3271 38.3287L71.334 37.8297C71.3601 35.6886 71.356 33.5461 71.3516 31.4C71.3474 29.4233 71.3437 27.4431 71.3623 25.4625H66.875L66.8867 24.9508C66.9007 24.3696 66.8975 23.7875 66.8945 23.1969C66.8916 22.6088 66.8889 22.0119 66.9033 21.4137L66.915 20.9166L67.4121 20.9254L68.5186 20.941C71.0971 20.9685 73.6682 20.9341 76.2686 20.9479L76.2676 20.9489C77.6613 20.9359 78.9853 20.9784 80.3428 20.9274L80.8467 20.9078L80.8613 21.4127Z" fill="#0D2128" stroke="#F3EBEB"/>
</svg>
