<svg width="88" height="134" viewBox="0 0 88 134" fill="none" xmlns="http://www.w3.org/2000/svg">
<path d="M81.0663 0.402584C83.2719 -0.151511 85.5724 0.095235 87.8211 0C88.2734 2.68822 87.7091 5.38944 87.8426 8.09065C87.8642 32.4795 87.8426 56.8683 87.8512 81.2614C87.8297 84.0059 87.9202 86.7548 87.7737 89.4949C69.5383 99.8929 51.4537 110.585 33.2528 121.057C25.7915 125.399 18.3776 129.831 10.8172 134C9.94266 132.165 9.02938 130.346 8.15488 128.507C7.60347 127.182 7.0219 125.875 6.46618 124.554C6.32401 124.13 6.17755 123.71 6.03108 123.29C5.60029 122.122 5.1738 120.953 4.74732 119.784C4.59654 119.351 4.44577 118.918 4.29068 118.485C4.23468 118.26 4.12698 117.801 4.07098 117.572C2.09364 111.408 0.99082 104.997 0.374789 98.5596C0.189548 96.1181 0.344633 93.6593 0 91.2308C0.224011 84.5557 0.628956 77.8416 2.16688 71.3094C3.17924 66.8853 4.4113 62.5175 6.01385 58.2708C12.773 40.319 25.4253 24.7178 41.4938 14.3588C45.6553 11.4931 50.2259 9.3287 54.7665 7.15994C55.3825 6.93051 55.9942 6.70108 56.6103 6.47165C63.7054 3.52802 71.2227 1.62765 78.8262 0.623356C79.5714 0.545436 80.321 0.484832 81.0663 0.402584Z" fill="#00ADEF"/>
</svg>
