<svg width="106" height="124" viewBox="0 0 106 124" fill="none" xmlns="http://www.w3.org/2000/svg">
    <path id="Union"
        d="M52.415 96C53.2132 96.0002 53.8837 96.6313 53.8838 97.4199V119.057L56.9814 115.996C57.5243 115.46 58.4183 115.46 58.9932 115.996C59.568 116.532 59.5683 117.448 59.0254 118.016L53.4365 123.537C53.4682 123.6 53.4365 123.6 53.4365 123.632C52.8618 124.168 51.9676 124.105 51.4248 123.537L45.8359 118.016C45.293 117.479 45.293 116.595 45.8359 116.027C46.3789 115.46 47.3051 115.46 47.8799 115.996L50.9775 119.057V97.4199C50.9776 96.6312 51.6167 96 52.415 96ZM15.7148 65.2285C16.9267 65.2286 17.9409 65.5234 18.7568 66.1113C19.5726 66.6993 20.1186 67.5335 20.3945 68.6133H17.6582C17.3342 67.7854 16.6866 67.3712 15.7148 67.3711C14.9829 67.3711 14.4063 67.6407 13.9863 68.1807C13.5783 68.7087 13.374 69.4354 13.374 70.3594C13.3741 71.2831 13.5785 72.0148 13.9863 72.5547C14.4063 73.0827 14.9828 73.3467 15.7148 73.3467C16.6746 73.3466 17.3222 72.9267 17.6582 72.0869H20.3945C20.1065 73.1309 19.5487 73.9593 18.7207 74.5713C17.9048 75.1832 16.9027 75.4892 15.7148 75.4893C14.2628 75.4893 13.08 75.021 12.168 74.085C11.2562 73.1491 10.8009 71.9071 10.8008 70.3594C10.8008 68.8115 11.2561 67.5688 12.168 66.6328C13.08 65.6968 14.2628 65.2285 15.7148 65.2285ZM34.001 65.2285C35.4649 65.2285 36.6889 65.6969 37.6729 66.6328C38.6568 67.5688 39.1494 68.8049 39.1494 70.3408C39.1494 71.8768 38.6513 73.1194 37.6553 74.0674C36.6714 75.0152 35.4472 75.4892 33.9834 75.4893C32.5195 75.4893 31.3011 75.0152 30.3291 74.0674C29.3571 73.1194 28.8711 71.8768 28.8711 70.3408C28.8711 68.805 29.3628 67.5688 30.3467 66.6328C31.3306 65.6969 32.5491 65.2286 34.001 65.2285ZM66.6953 75.3447H64.1758V73.6709C63.4198 74.8829 62.3694 75.4893 61.0254 75.4893C59.6816 75.4892 58.56 75.0086 57.6602 74.0488C56.7722 73.0768 56.3281 71.8408 56.3281 70.3408C56.3281 68.8409 56.7722 67.6169 57.6602 66.6689C58.5481 65.7091 59.676 65.2285 61.0439 65.2285C62.4119 65.2286 63.4558 65.7929 64.1758 66.9209V62.0254H66.6953V75.3447ZM73.833 65.2285C75.2969 65.2285 76.5209 65.6969 77.5049 66.6328C78.4889 67.5688 78.9814 68.8049 78.9814 70.3408C78.9814 71.8768 78.4833 73.1194 77.4873 74.0674C76.5034 75.0152 75.2792 75.4892 73.8154 75.4893C72.3515 75.4893 71.1331 75.0152 70.1611 74.0674C69.1891 73.1194 68.7031 71.8768 68.7031 70.3408C68.7031 68.805 69.1949 67.5688 70.1787 66.6328C71.1627 65.6969 72.3811 65.2286 73.833 65.2285ZM4.42773 62.6006C5.73573 62.6006 6.78612 62.901 7.57812 63.501C8.37005 64.089 8.80203 64.9892 8.87402 66.2012H6.10156C6.05356 65.7212 5.87352 65.3434 5.56152 65.0674C5.24953 64.7794 4.84188 64.6348 4.33789 64.6348C3.83394 64.6348 3.41968 64.7673 3.0957 65.0312C2.78396 65.2832 2.62796 65.637 2.62793 66.0928C2.62793 66.5487 2.74182 66.9089 2.96973 67.1729C3.20973 67.4249 3.52225 67.6226 3.90625 67.7666C4.29021 67.8986 4.71007 68.019 5.16602 68.127C5.62201 68.235 6.07819 68.3665 6.53418 68.5225C6.99011 68.6784 7.41 68.8707 7.79395 69.0986C8.17783 69.3266 8.48394 69.6626 8.71191 70.1064C8.95185 70.5383 9.0722 71.0666 9.07227 71.6904C9.07227 72.7223 8.65791 73.6105 7.83008 74.3545C7.01408 75.0985 5.92171 75.4707 4.55371 75.4707C3.19784 75.4707 2.09971 75.1526 1.25977 74.5166C0.41996 73.8686 0 72.9627 0 71.7988H2.7002C2.79619 72.9028 3.42594 73.455 4.58984 73.4551C5.16584 73.4551 5.62201 73.3049 5.95801 73.0049C6.29389 72.705 6.4618 72.3092 6.46191 71.8174C6.46191 71.3134 6.2399 70.9169 5.7959 70.6289C5.35191 70.3409 4.81175 70.1245 4.17578 69.9805C3.55193 69.8365 2.92198 69.6629 2.28613 69.459C1.65013 69.255 1.11002 68.9005 0.666016 68.3965C0.222215 67.8806 6.67722e-05 67.203 0 66.3633C0 65.2233 0.414187 64.311 1.24219 63.627C2.07012 62.943 3.1319 62.6006 4.42773 62.6006ZM27.749 67.8213H27.1191C26.3633 67.8213 25.7931 68.0126 25.4092 68.3965C25.0252 68.7685 24.833 69.4169 24.833 70.3408V75.3447H22.2949V65.373H24.833V67.1367C25.5049 65.8648 26.4772 65.2286 27.749 65.2285V67.8213ZM43.6943 75.3447H41.1562V62.0254H43.6943V75.3447ZM48.9326 75.3447H46.3945V62.0254H48.9326V75.3447ZM84.1572 72.9512L85.9932 65.373H88.6572L90.457 72.9326L92.293 65.373H94.7227L91.6631 75.3447H88.9629L87.2529 68.6484L85.5244 75.3447H82.8252L79.7646 65.373H82.3203L84.1572 72.9512ZM101.811 65.2285C102.95 65.2286 103.881 65.6073 104.601 66.3633C105.32 67.1072 105.681 68.1449 105.681 69.4766V75.3447H103.16V69.8369C103.16 69.0569 102.962 68.4627 102.566 68.0547C102.17 67.6347 101.63 67.4248 100.946 67.4248C100.262 67.4248 99.7166 67.6349 99.3086 68.0547C98.9126 68.4627 98.7139 69.0569 98.7139 69.8369V75.3447H96.1758V65.373H98.7139V66.8672C99.3499 65.7752 100.383 65.2285 101.811 65.2285ZM33.9834 67.3711C33.2756 67.3711 32.6755 67.6288 32.1836 68.1445C31.6916 68.6605 31.4453 69.3994 31.4453 70.3594C31.4454 71.3191 31.6917 72.0573 32.1836 72.5732C32.6755 73.089 33.2756 73.3467 33.9834 73.3467C34.6911 73.3466 35.2969 73.0889 35.8008 72.5732C36.3167 72.0453 36.5751 71.3071 36.5752 70.3594C36.5752 69.3994 36.3233 68.6605 35.8193 68.1445C35.3154 67.6287 34.7032 67.3712 33.9834 67.3711ZM73.8154 67.3711C73.1076 67.3711 72.5076 67.6288 72.0156 68.1445C71.5236 68.6605 71.2773 69.3994 71.2773 70.3594C71.2774 71.3191 71.5237 72.0573 72.0156 72.5732C72.5076 73.089 73.1076 73.3467 73.8154 73.3467C74.5232 73.3466 75.1289 73.0889 75.6328 72.5732C76.1487 72.0453 76.4071 71.3071 76.4072 70.3594C76.4072 69.3994 76.1554 68.6605 75.6514 68.1445C75.1474 67.6287 74.5353 67.3712 73.8154 67.3711ZM61.5293 67.4248C60.8215 67.4249 60.2037 67.6833 59.6758 68.1992C59.1599 68.7152 58.9014 69.4289 58.9014 70.3408C58.9014 71.2527 59.1655 71.973 59.6934 72.501C60.2212 73.0289 60.8335 73.2929 61.5293 73.293C62.2373 73.293 62.8558 73.0346 63.3838 72.5186C63.9116 71.9907 64.1757 71.271 64.1758 70.3594C64.1758 69.4474 63.9118 68.7328 63.3838 68.2168C62.8558 67.6888 62.2373 67.4248 61.5293 67.4248ZM52.334 0C60.2201 9.296e-06 66.6094 6.58889 66.6094 14.7207V28.0654C66.6093 36.1971 60.22 42.8271 52.334 42.8271C44.448 42.8271 38.0587 36.1971 38.0586 28.0654V14.7207C38.0586 6.58888 44.4479 0 52.334 0ZM52.334 3.54492C46.3486 3.54492 41.4961 8.54886 41.4961 14.7207V28.0654C41.4962 34.2372 46.3487 39.2412 52.334 39.2412C58.3193 39.2412 63.1718 34.2372 63.1719 28.0654V14.7207C63.1719 8.54887 58.3193 3.54493 52.334 3.54492ZM52.334 8.32715C53.6618 8.32716 54.7126 9.25466 54.7129 10.4258V15.7461C54.7129 16.9174 53.662 17.8447 52.334 17.8447C51.0613 17.8447 49.9551 16.9174 49.9551 15.7461V10.4258C49.9554 9.30344 51.0062 8.32715 52.334 8.32715Z"
        fill="url(#paint0_linear_117_153)" />
    <defs>
        <linearGradient id="paint0_linear_117_153" x1="18.2163" y1="37.5605" x2="99.567" y2="38.7799"
            gradientUnits="userSpaceOnUse">
            <stop stop-color="#FFAD3A" />
            <stop offset="1" stop-color="#FF0004" />
        </linearGradient>
    </defs>
</svg>