<svg width="154" height="88" viewBox="0 0 154 88" fill="none" xmlns="http://www.w3.org/2000/svg">
<path d="M75.6337 0.591672C76.1564 0.327205 76.7698 -0.262426 77.3832 0.132107C91.4957 8.25255 105.561 16.4554 119.647 24.6192C122.425 26.0976 125.021 27.9098 127.863 29.2712L127.561 29.4576C127.76 29.4966 128.153 29.566 128.351 29.605C136.814 34.6819 145.444 39.4944 153.928 44.5323C154.261 45.2086 153.341 45.7852 153.099 46.3792C143.453 61.4408 129.246 73.4589 112.878 80.5692C112.161 80.8423 111.457 81.1415 110.753 81.4449C108.472 82.3641 106.148 83.1792 103.798 83.9119C100.96 84.8527 98.0443 85.5247 95.1285 86.162C93.4136 86.4525 91.6987 86.7386 89.9924 87.0811C89.1069 87.1592 88.217 87.2502 87.3315 87.3543C79.5776 88.3514 71.6855 88.1477 63.9446 87.0595C60.342 86.4525 56.748 85.7892 53.2058 84.883C51.6378 84.4148 50.074 83.9162 48.5189 83.4046C45.9919 82.5679 43.4951 81.6531 41.0588 80.5822C26.3934 74.235 13.4343 63.9381 3.99573 51.0095C3.1793 49.6482 2.33696 48.3085 1.47302 46.9775C0.971934 46.3098 0.488127 45.6335 0 44.9571C1.01081 44.4585 1.90499 43.7649 2.92012 43.275C3.00651 43.1015 3.18362 42.7547 3.27002 42.5769C4.4277 41.9873 5.5681 41.363 6.66962 40.6736C29.59 27.2032 52.6702 13.9928 75.6337 0.591672Z" fill="#BF1E2E"/>
</svg>
