<svg width="88" height="134" viewBox="0 0 88 134" fill="none" xmlns="http://www.w3.org/2000/svg">
<path d="M0.0102906 0.0327515C3.19483 -0.140406 6.32744 0.418025 9.49035 0.656116C13.9556 1.3271 18.4122 2.16258 22.7391 3.47858C35.4729 7.19712 47.3414 13.7684 57.2974 22.5302C67.6428 31.6123 75.8248 43.1185 81.1555 55.811C81.8824 57.681 82.6612 59.5295 83.3016 61.4342C83.8165 62.9883 84.3054 64.5511 84.7597 66.1268C85.5775 69.5726 86.5121 72.9968 86.9231 76.5205C87.3991 78.5248 87.3991 80.5984 87.8058 82.6113C88.1 87.6502 87.9875 92.7064 87.9313 97.7496C87.3212 103.723 86.3087 109.667 84.7597 115.477C84.6169 115.922 84.4785 116.368 84.34 116.814C82.6828 122.792 80.1387 128.468 77.3782 134C75.4917 133.39 73.96 132.061 72.1816 131.221C58.9502 123.515 45.6626 115.901 32.4182 108.213C21.6098 102.044 10.9139 95.663 0.0751903 89.5463C-0.0719216 59.7113 0.049232 29.872 0.0102906 0.0327515Z" fill="#F7941D"/>
</svg>
